<?xml version="1.0" encoding="UTF-8" standalone="no"?>
<!-- Created with Inkscape (http://www.inkscape.org/) -->

<svg
   width="730.13623"
   height="129.69141"
   viewBox="0 0 193.18188 34.314185"
   version="1.1"
   id="svg1"
   xml:space="preserve"
   sodipodi:docname="Makers.svg"
   inkscape:version="1.4.3 (0d15f75042, 2025-12-25)"
   xmlns:inkscape="http://www.inkscape.org/namespaces/inkscape"
   xmlns:sodipodi="http://sodipodi.sourceforge.net/DTD/sodipodi-0.dtd"
   xmlns="http://www.w3.org/2000/svg"
   xmlns:svg="http://www.w3.org/2000/svg"><sodipodi:namedview
     id="namedview1"
     pagecolor="#ffffff"
     bordercolor="#000000"
     borderopacity="0.25"
     inkscape:showpageshadow="2"
     inkscape:pageopacity="0.0"
     inkscape:pagecheckerboard="0"
     inkscape:deskcolor="#d1d1d1"
     inkscape:zoom="1.0833595"
     inkscape:cx="365.06811"
     inkscape:cy="64.613824"
     inkscape:window-width="1920"
     inkscape:window-height="1009"
     inkscape:window-x="0"
     inkscape:window-y="0"
     inkscape:window-maximized="1"
     inkscape:current-layer="svg1" /><defs
     id="defs1"><linearGradient
       id="swatch57"><stop
         style="stop-color:#30383a;stop-opacity:1;"
         offset="0"
         id="stop57" /></linearGradient></defs><path
     d="m 180.96718,-2e-6 c -2.51759,0 -4.7089,0.419648 -6.57376,1.258838 -1.86487,0.80812 -3.30995,1.989393 -4.33565,3.543453 -1.02569,1.55407 -1.53841,3.403381 -1.53841,5.547981 0,1.64731 0.27976,3.046127 0.83923,4.196127 0.55946,1.11893 1.28973,2.066724 2.19108,2.843754 0.93244,0.74594 1.94246,1.383131 3.0303,1.911511 1.08784,0.52838 2.17553,0.978885 3.26337,1.351855 1.11893,0.37297 2.12947,0.746342 3.03082,1.119312 0.93244,0.341881 1.67813,0.745591 2.23759,1.211811 0.55945,0.43514 0.83923,0.99465 0.83923,1.67845 0,0.68379 -0.32657,1.22788 -0.97927,1.63194 -0.65271,0.37299 -1.61592,0.55966 -2.89026,0.55966 -1.52299,0 -2.95267,-0.29571 -4.28915,-0.88625 -1.3365,-0.62162 -2.61086,-1.5072 -3.82302,-2.6572 l -5.82807,5.82755 c 1.77163,1.8027 3.6991,3.12385 5.78156,3.96306 2.11351,0.8081 4.58407,1.21233 7.41247,1.21233 4.38246,0 7.77047,-0.91694 10.16372,-2.75073 2.42434,-1.86489 3.63647,-4.49126 3.63647,-7.87911 0,-1.6784 -0.27975,-3.10857 -0.83922,-4.28966 -0.55946,-1.18109 -1.30514,-2.159742 -2.23759,-2.936772 -0.90135,-0.80812 -1.89596,-1.46073 -2.9838,-1.95802 -1.08784,-0.52839 -2.19146,-0.979382 -3.31039,-1.352372 -1.08784,-0.37297 -2.09786,-0.730406 -3.03031,-1.072286 -0.90135,-0.3419 -1.63162,-0.714735 -2.19108,-1.118795 -0.55945,-0.43515 -0.83923,-0.979232 -0.83923,-1.631942 0,-0.62163 0.27978,-1.087554 0.83923,-1.398364 0.59055,-0.31077 1.36761,-0.466638 2.33112,-0.466638 1.21218,0 2.33072,0.248887 3.35639,0.746207 1.0257,0.46622 2.05165,1.196471 3.07733,2.191081 l 5.87406,-5.827551 C 191.78328,3.108398 190.01163,1.989357 187.86702,1.212327 185.75349,0.404207 183.45368,-2.0000001e-6 180.96718,-2e-6 Z M 50.472304,0.559653 37.837933,33.75453 h 9.511048 l 1.88619,-5.59449 H 60.9404 l 1.8402,5.59449 h 9.6976 L 59.98335,0.559653 Z m 24.663096,0 V 33.75453 h 9.32449 V 17.639231 l 10.8164,16.115299 h 11.18898 L 94.23139,16.387628 105.95264,0.559653 H 94.71663 L 84.45989,15.317409 V 0.559653 Z m 33.52095,0 V 33.75453 h 7.55303 1.77147 16.03829 v -7.73907 h -16.03829 v -5.408451 h 14.31282 V 13.054498 H 117.98085 V 8.298716 h 15.75821 V 0.559653 h -15.75821 -1.77147 z m 29.79146,0 V 33.75453 h 9.3245 V 20.513991 h 0.12919 l 8.4491,13.240539 h 10.58333 l -9.71207,-13.822416 c 0.64455,-0.182724 1.25541,-0.408094 1.83296,-0.676961 1.80272,-0.83919 3.20153,-2.005044 4.19613,-3.496944 1.0257,-1.49191 1.53841,-3.232177 1.53841,-5.221387 0,-1.98921 -0.4973,-3.730003 -1.4919,-5.221903 -0.99461,-1.49191 -2.36205,-2.657238 -4.10259,-3.496428 -1.74055,-0.83919 -3.76111,-1.258838 -6.06113,-1.258838 h -5.36143 -1.77147 z m 9.3245,6.713803 h 3.86953 c 1.27434,0 2.23808,0.310602 2.89078,0.932242 0.68378,0.62161 1.02578,1.445497 1.02578,2.471167 0,1.02568 -0.342,1.849031 -1.02578,2.470651 -0.6527,0.62163 -1.61644,0.932759 -2.89078,0.932759 h -3.86953 z m -92.61192,3.314009 3.38791,10.29963 h -6.86057 z"
     style="font-weight:900;font-size:25.1629px;line-height:1;font-family:Outfit;-inkscape-font-specification:'Outfit, Heavy @wght=900';font-variant-ligatures:none;font-variation-settings:'wght' 900;text-align:end;text-anchor:end;fill:#cacaca;stroke-width:0.528889;stroke-linecap:round;stroke-linejoin:round;fill-opacity:1"
     id="path3" /><path
     id="path1-0"
     style="font-weight:900;font-size:25.1629px;line-height:1;font-family:Outfit;-inkscape-font-specification:'Outfit, Heavy @wght=900';font-variant-ligatures:none;font-variation-settings:'wght' 900;text-align:end;text-anchor:end;fill:#f95602;fill-opacity:1;stroke-width:0.537802;stroke-linecap:round;stroke-linejoin:round"
     d="M 6.6e-5,2.15e-4 V 33.75453 H 35.840507 V 2.15e-4 H 28.966263 L 17.067443,13.511189 6.87431,2.15e-4 Z m 31.291418,3.065087 v 6.603099 h -5.331453 z m -5.331453,8.744928 h 5.331453 v 4.814914 h -5.331453 z m 0,6.98617 h 5.331453 v 4.81492 h -5.331453 z m 0,6.98617 h 5.331453 v 4.81492 h -5.331453 z" /></svg>
