<?xml version="1.0" encoding="UTF-8" standalone="no"?>
<!-- Created with Inkscape (http://www.inkscape.org/) -->

<svg
   width="730.13623"
   height="129.69141"
   viewBox="0 0 193.18188 34.314185"
   version="1.1"
   id="svg1"
   xml:space="preserve"
   xmlns="http://www.w3.org/2000/svg"
   xmlns:svg="http://www.w3.org/2000/svg"><defs
     id="defs1"><linearGradient
       id="swatch57"><stop
         style="stop-color:#30383a;stop-opacity:1;"
         offset="0"
         id="stop57" /></linearGradient></defs><g
     id="layer1"
     transform="translate(-49.19191,-78.09291)"><path
       d="m 230.15909,78.092908 c -2.51759,0 -4.7089,0.419648 -6.57376,1.258838 -1.86487,0.80812 -3.30995,1.989393 -4.33565,3.543453 -1.02569,1.55407 -1.53841,3.403381 -1.53841,5.547981 0,1.64731 0.27976,3.046127 0.83923,4.196127 0.55946,1.11893 1.28973,2.066724 2.19108,2.843754 0.93244,0.74594 1.94246,1.383131 3.0303,1.911511 1.08784,0.52838 2.17553,0.978885 3.26337,1.351855 1.11893,0.37297 2.12947,0.746342 3.03082,1.119312 0.93244,0.341881 1.67813,0.745591 2.23759,1.211811 0.55945,0.43514 0.83923,0.99465 0.83923,1.67845 0,0.68379 -0.32657,1.22788 -0.97927,1.63194 -0.65271,0.37299 -1.61592,0.55966 -2.89026,0.55966 -1.52299,0 -2.95267,-0.29571 -4.28915,-0.88625 -1.3365,-0.62162 -2.61086,-1.5072 -3.82302,-2.6572 l -5.82807,5.82755 c 1.77163,1.8027 3.6991,3.12385 5.78156,3.96306 2.11351,0.8081 4.58407,1.21233 7.41247,1.21233 4.38246,0 7.77047,-0.91694 10.16372,-2.75073 2.42434,-1.86489 3.63647,-4.49126 3.63647,-7.87911 0,-1.6784 -0.27975,-3.10857 -0.83922,-4.28966 -0.55946,-1.18109 -1.30514,-2.159742 -2.23759,-2.936772 -0.90135,-0.80812 -1.89596,-1.46073 -2.9838,-1.95802 -1.08784,-0.52839 -2.19146,-0.979382 -3.31039,-1.352372 -1.08784,-0.37297 -2.09786,-0.730406 -3.03031,-1.072286 -0.90135,-0.3419 -1.63162,-0.714735 -2.19108,-1.118795 -0.55945,-0.43515 -0.83923,-0.979232 -0.83923,-1.631942 0,-0.62163 0.27978,-1.087554 0.83923,-1.398364 0.59055,-0.31077 1.36761,-0.466638 2.33112,-0.466638 1.21218,0 2.33072,0.248887 3.35639,0.746207 1.0257,0.46622 2.05165,1.196471 3.07733,2.191081 l 5.87406,-5.827551 c -1.39866,-1.46083 -3.17031,-2.579871 -5.31492,-3.356901 -2.11353,-0.80812 -4.41334,-1.212329 -6.89984,-1.212329 z M 99.664214,78.652563 87.029843,111.84744 h 9.511048 l 1.88619,-5.59449 h 11.705229 l 1.8402,5.59449 h 9.6976 L 109.17526,78.652563 Z m 24.663096,0 v 33.194877 h 9.32449 V 95.732141 l 10.8164,16.115299 h 11.18898 L 143.4233,94.480538 155.14455,78.652563 H 143.90854 L 133.6518,93.410319 V 78.652563 Z m 33.52095,0 v 33.194877 h 7.55303 1.77147 16.03829 v -7.73907 h -16.03829 v -5.408451 h 14.31282 v -7.552511 h -14.31282 v -4.755782 h 15.75821 v -7.739063 h -15.75821 -1.77147 z m 29.79146,0 v 33.194877 h 9.3245 V 98.606901 h 0.12919 l 8.4491,13.240539 h 10.58333 l -9.71207,-13.822416 c 0.64455,-0.182724 1.25541,-0.408094 1.83296,-0.676961 1.80272,-0.83919 3.20153,-2.005044 4.19613,-3.496944 1.0257,-1.49191 1.53841,-3.232177 1.53841,-5.221387 0,-1.98921 -0.4973,-3.730003 -1.4919,-5.221903 -0.99461,-1.49191 -2.36205,-2.657238 -4.10259,-3.496428 -1.74055,-0.83919 -3.76111,-1.258838 -6.06113,-1.258838 h -5.36143 -1.77147 z m 9.3245,6.713803 h 3.86953 c 1.27434,0 2.23808,0.310602 2.89078,0.932242 0.68378,0.62161 1.02578,1.445497 1.02578,2.471167 0,1.02568 -0.342,1.849031 -1.02578,2.470651 -0.6527,0.62163 -1.61644,0.932759 -2.89078,0.932759 h -3.86953 z m -92.61192,3.314009 3.38791,10.29963 h -6.86057 z"
       style="font-weight:900;font-size:25.1629px;line-height:1;font-family:Outfit;-inkscape-font-specification:'Outfit, Heavy @wght=900';font-variant-ligatures:none;font-variation-settings:'wght' 900;text-align:end;text-anchor:end;fill:#30383a;stroke-width:0.528889;stroke-linecap:round;stroke-linejoin:round"
       id="path3" /><path
       id="path1-0"
       style="font-weight:900;font-size:25.1629px;line-height:1;font-family:Outfit;-inkscape-font-specification:'Outfit, Heavy @wght=900';font-variant-ligatures:none;font-variation-settings:'wght' 900;text-align:end;text-anchor:end;fill:#f95602;fill-opacity:1;stroke-width:0.537802;stroke-linecap:round;stroke-linejoin:round"
       d="M 49.191976,78.093125 V 111.84744 H 85.032417 V 78.093125 H 78.158173 L 66.259353,91.604099 56.06622,78.093125 Z m 31.291418,3.065087 v 6.603099 h -5.331453 z m -5.331453,8.744928 h 5.331453 v 4.814914 h -5.331453 z m 0,6.98617 h 5.331453 v 4.81492 h -5.331453 z m 0,6.98617 h 5.331453 v 4.81492 h -5.331453 z" /></g></svg>
